# xmcd
#
# Track frame offsets:
#	150
#	36120
#	71750
#	106315
#	143559
#	178388
#	216805
#	256522
#	290200
#	324436
#
# Disc length: 4742 seconds
#
# Revision: 1
# Processed by: cddbd v1.5.2PL0 Copyright (c) Steve Scherf et al.
# Submitted via: EasyCDDAExtractor 8.2.1.1
#
DISCID=9712840a
DTITLE=Various Artist - Trancemaster 58 - CD 2
DYEAR=2007
DGENRE=Trance
TTITLE0=Gareth Emery - More than everything (Gareth Emery's Five AM Rmx)
TTITLE1=Pulsea - Things you say (Original)
TTITLE2=Paul van Dyk and Giuseppe Ottaviani - Far away
TTITLE3=Lange - Angel falls (Ali Wilson Tekelec Rmx)
TTITLE4=Dogzilla - Frozen
TTITLE5=Tragida - Elisabeth (Natlife Remix)
TTITLE6=Ignyta - Lost in Control (Steve Anderson Remix)
TTITLE7=Manuel le Saux - Forgive (Original Mix)
TTITLE8=Mike Nichol - Durado (Original Mix)
TTITLE9=Airwave - Sunday Break (Beat Mix)
EXTD=
EXTT0=
EXTT1=
EXTT2=
EXTT3=
EXTT4=
EXTT5=
EXTT6=
EXTT7=
EXTT8=
EXTT9=
PLAYORDER=
